<?xml version="1.0" encoding="UTF-8"?>
<svg id="Layer_2" data-name="Layer 2" xmlns="http://www.w3.org/2000/svg" viewBox="0 0 50 50">
  <defs>
    <style>
      .cls-1 {
        stroke-width: 0px;
      }
    </style>
  </defs>
  <g id="Layer_1-2" data-name="Layer 1">
    <g>
      <path class="cls-1" d="M35.78,71.56C16.05,71.56,0,55.51,0,35.78S16.05,0,35.78,0s35.78,16.05,35.78,35.78-16.05,35.78-35.78,35.78ZM35.78,5c-16.97,0-30.78,13.81-30.78,30.78s13.81,30.78,30.78,30.78,30.78-13.81,30.78-30.78S52.75,5,35.78,5Z"/>
      <path class="cls-1" d="M35.78,49.78c-1.38,0-2.5-1.12-2.5-2.5v-23.01c0-1.38,1.12-2.5,2.5-2.5s2.5,1.12,2.5,2.5v23.01c0,1.38-1.12,2.5-2.5,2.5Z"/>
      <path class="cls-1" d="M47.28,38.28h-23.01c-1.38,0-2.5-1.12-2.5-2.5s1.12-2.5,2.5-2.5h23.01c1.38,0,2.5,1.12,2.5,2.5s-1.12,2.5-2.5,2.5Z"/>
    </g>
  </g>
</svg>