<?xml version="1.0" encoding="UTF-8"?>
<svg id="Layer_2" data-name="Layer 2" xmlns="http://www.w3.org/2000/svg" viewBox="0 0 50 50">
  <defs>
    <style>
      .cls-1 {
        stroke-width: 0px;
      }
    </style>
  </defs>
  <g id="Layer_1-2" data-name="Layer 1">
    <g>
      <path class="cls-1" d="M18.47,37.52H1.73c-.95,0-1.73-.79-1.73-1.75v-17.01C0,8.42,8.29,0,18.47,0s18.47,8.42,18.47,18.76-8.29,18.76-18.47,18.76ZM3.45,34.01h15.02c8.28,0,15.02-6.84,15.02-15.25S26.75,3.51,18.47,3.51,3.45,10.35,3.45,18.76v15.25Z"/>
      <path class="cls-1" d="M48.27,50h-16.75c-4.62,0-9.05-1.75-12.47-4.92-.7-.65-.75-1.76-.11-2.48.64-.71,1.74-.76,2.44-.11,2.78,2.58,6.38,4,10.14,4h15.02v-15.24c0-4.16-1.62-8.05-4.57-10.95-.68-.67-.7-1.78-.04-2.48s1.76-.71,2.44-.04c3.62,3.57,5.62,8.35,5.62,13.47v17c0,.97-.77,1.75-1.73,1.75Z"/>
    </g>
  </g>
</svg>