<?xml version="1.0" encoding="UTF-8"?>
<svg id="Layer_2" data-name="Layer 2" xmlns="http://www.w3.org/2000/svg" viewBox="0 0 50 50">
  <defs>
    <style>
      .cls-1 {
        stroke-width: 0px;
      }
    </style>
  </defs>
  <g id="Layer_1-2" data-name="Layer 1">
    <g>
      <path class="cls-1" d="M25,50C11.22,50,0,38.79,0,25S11.22,0,25,0s25,11.21,25,25-11.22,25-25,25ZM25,3.49C13.14,3.49,3.49,13.14,3.49,25s9.65,21.51,21.51,21.51,21.51-9.65,21.51-21.51S36.86,3.49,25,3.49Z"/>
      <path class="cls-1" d="M25,34.78c-.96,0-1.75-.78-1.75-1.75v-16.08c0-.96.78-1.75,1.75-1.75s1.75.78,1.75,1.75v16.08c0,.96-.78,1.75-1.75,1.75Z"/>
      <path class="cls-1" d="M33.04,26.75h-16.08c-.96,0-1.75-.78-1.75-1.75s.78-1.75,1.75-1.75h16.08c.96,0,1.75.78,1.75,1.75s-.78,1.75-1.75,1.75Z"/>
    </g>
  </g>
</svg>