<?xml version="1.0" encoding="UTF-8"?>
<svg id="Layer_2" data-name="Layer 2" xmlns="http://www.w3.org/2000/svg" viewBox="0 0 50 50">
  <defs>
    <style>
      .cls-1 {
        stroke-width: 0px;
      }
    </style>
  </defs>
  <g id="Layer_1-2" data-name="Layer 1">
    <g>
      <path class="cls-1" d="M1.85,50c-.49,0-.96-.19-1.3-.54-.36-.36-.56-.86-.54-1.38l.27-6.59c.02-.46.21-.9.54-1.23L39.22,1.85h0c2.46-2.46,6.47-2.46,8.93,0,2.46,2.46,2.46,6.47,0,8.93L9.74,49.19c-.33.33-.77.52-1.23.54l-6.59.27s-.05,0-.08,0ZM3.93,42.36l-.16,3.87,3.87-.16L45.54,8.17c1.02-1.02,1.02-2.69,0-3.71-1.02-1.02-2.69-1.02-3.71,0L3.93,42.36Z"/>
      <path class="cls-1" d="M42.7,15.46c-.47,0-.94-.18-1.3-.54l-6.32-6.32c-.72-.72-.72-1.89,0-2.61.72-.72,1.89-.72,2.61,0l6.32,6.32c.72.72.72,1.89,0,2.61-.36.36-.83.54-1.3.54Z"/>
    </g>
  </g>
</svg>