<?xml version="1.0" encoding="UTF-8"?>
<svg id="Layer_2" data-name="Layer 2" xmlns="http://www.w3.org/2000/svg" viewBox="0 0 50 50">
  <defs>
    <style>
      .cls-1 {
        stroke-width: 0px;
      }
    </style>
  </defs>
  <g id="Layer_1-2" data-name="Layer 1">
    <path class="cls-1" d="M28.27,50c-.84,0-1.66-.29-2.33-.86l-6.55-5.58c-.75-.64-1.18-1.55-1.18-2.51v-11.68L2.14,12.79C-.05,10.54-.6,7.39.68,4.57,1.97,1.75,4.77,0,7.99,0h34.03c3.22,0,6.01,1.75,7.3,4.57,1.29,2.82.73,5.97-1.46,8.22h0l-16.06,16.57v17.26c0,1.34-.8,2.52-2.08,3.07-.47.2-.96.3-1.45.3ZM21.96,40.95l6.1,5.19v-16.87c0-.85.33-1.66.94-2.29l16.12-16.63c1.18-1.21,1.46-2.84.77-4.36-.69-1.52-2.14-2.42-3.87-2.42H7.99c-1.73,0-3.18.91-3.87,2.42s-.4,3.15.77,4.36l16.13,16.63c.61.62.94,1.44.94,2.29v11.67ZM46.49,11.58h0,0Z"/>
  </g>
</svg>