<?xml version="1.0" encoding="UTF-8"?>
<svg id="Layer_2" data-name="Layer 2" xmlns="http://www.w3.org/2000/svg" viewBox="0 0 50 50">
  <defs>
    <style>
      .cls-1 {
        stroke-width: 0px;
      }
    </style>
  </defs>
  <g id="Layer_1-2" data-name="Layer 1">
    <path class="cls-1" d="M25,50c-1.61,0-3.22-.8-4.44-2.4L3.29,25.08C-1.1,19.35-1.1,10.03,3.29,4.3,5.42,1.53,8.25,0,11.25,0s5.84,1.53,7.96,4.3l5.78,7.54,5.78-7.54c2.13-2.78,4.95-4.3,7.96-4.3s5.84,1.53,7.96,4.3h0c2.13,2.78,3.3,6.46,3.3,10.39s-1.17,7.61-3.3,10.39l-17.26,22.52c-1.22,1.6-2.83,2.4-4.44,2.4ZM11.25,4.02c-2.18,0-4.24,1.11-5.78,3.12-1.54,2.02-2.39,4.69-2.39,7.54s.85,5.53,2.39,7.54l17.26,22.52c1.25,1.63,3.28,1.63,4.52,0l17.26-22.52c1.54-2.01,2.39-4.69,2.39-7.54s-.85-5.53-2.39-7.54c-1.54-2.01-3.6-3.12-5.78-3.12s-4.24,1.11-5.78,3.12l-6.87,8.97c-.29.38-.68.59-1.09.59h0c-.41,0-.8-.21-1.09-.59l-6.87-8.97c-1.54-2.01-3.6-3.12-5.78-3.12Z"/>
  </g>
</svg>