<?xml version="1.0" encoding="UTF-8"?>
<svg id="Layer_2" data-name="Layer 2" xmlns="http://www.w3.org/2000/svg" viewBox="0 0 50 50">
  <defs>
    <style>
      .cls-1 {
        stroke-width: 0px;
      }
    </style>
  </defs>
  <g id="Layer_1-2" data-name="Layer 1">
    <g>
      <path class="cls-1" d="M40.9,50H9.1c-5.02,0-9.1-3.83-9.1-8.53v-20.58c0-1.99.93-3.87,2.55-5.16L20.32,1.61c2.7-2.15,6.63-2.15,9.34,0l17.79,14.12c1.62,1.29,2.55,3.17,2.55,5.16v20.58c0,4.7-4.08,8.53-9.1,8.53ZM24.99,3.33c-.84,0-1.69.27-2.37.82L4.85,18.27c-.82.65-1.3,1.61-1.3,2.62v20.58c0,2.87,2.49,5.2,5.55,5.2h31.79c3.06,0,5.55-2.33,5.55-5.2v-20.58c0-1.01-.47-1.97-1.3-2.62L27.37,4.15c-.69-.55-1.53-.82-2.37-.82Z"/>
      <path class="cls-1" d="M31.71,37.88h-13.41c-.98,0-1.78-.74-1.78-1.66v-12.56c0-.92.79-1.66,1.78-1.66h13.41c.98,0,1.78.74,1.78,1.66v12.56c0,.92-.79,1.66-1.78,1.66ZM20.07,34.55h9.86v-9.24h-9.86v9.24Z"/>
    </g>
  </g>
</svg>