<?xml version="1.0" encoding="UTF-8"?>
<svg id="Layer_2" data-name="Layer 2" xmlns="http://www.w3.org/2000/svg" viewBox="0 0 50 50">
  <defs>
    <style>
      .cls-1 {
        stroke-width: 0px;
      }
    </style>
  </defs>
  <g id="Layer_1-2" data-name="Layer 1">
    <g>
      <g>
        <path class="cls-1" d="M39.12,35.55c-.48,0-.96-.16-1.32-.49-.73-.65-.73-1.71,0-2.36l8.35-7.47c.14-.13.14-.34,0-.47l-8.35-7.47c-.73-.65-.73-1.71,0-2.36.73-.65,1.91-.65,2.64,0l8.35,7.47c1.6,1.43,1.6,3.76,0,5.19l-8.35,7.47c-.36.33-.84.49-1.32.49Z"/>
        <path class="cls-1" d="M48.13,26.67H12.35c-1.03,0-1.87-.75-1.87-1.67s.84-1.67,1.87-1.67h35.79c1.03,0,1.87.75,1.87,1.67s-.84,1.67-1.87,1.67Z"/>
      </g>
      <path class="cls-1" d="M15.38,50h-7c-4.62,0-8.38-3.36-8.38-7.49V7.49C0,3.36,3.76,0,8.38,0h7c1.03,0,1.87.75,1.87,1.67s-.84,1.67-1.87,1.67h-7c-2.56,0-4.64,1.86-4.64,4.15v35.02c0,2.29,2.08,4.15,4.64,4.15h7c1.03,0,1.87.75,1.87,1.67s-.84,1.67-1.87,1.67Z"/>
    </g>
  </g>
</svg>