<?xml version="1.0" encoding="UTF-8"?>
<svg id="Layer_2" data-name="Layer 2" xmlns="http://www.w3.org/2000/svg" viewBox="0 0 50 50">
  <defs>
    <style>
      .cls-1 {
        stroke-width: 0px;
      }
    </style>
  </defs>
  <g id="Layer_1-2" data-name="Layer 1">
    <g>
      <path class="cls-1" d="M43.7,50H6.3c-1.91,0-3.7-.64-4.89-1.76-1.22-1.14-1.67-2.62-1.25-4.05,2.55-8.68,13-14.99,24.85-14.99h0c11.85,0,22.3,6.3,24.85,14.99.42,1.44-.04,2.91-1.25,4.05-1.2,1.12-2.98,1.76-4.89,1.76ZM25,32.55c-9.77,0-18.39,5.2-20.49,12.36-.13.44,0,.89.37,1.23.2.19.66.51,1.42.51h37.4c.76,0,1.21-.32,1.42-.51.37-.34.5-.79.37-1.23-2.1-7.16-10.72-12.36-20.49-12.36Z"/>
      <path class="cls-1" d="M25,24.66c-9.04,0-16.4-5.53-16.4-12.33S15.96,0,25,0s16.4,5.53,16.4,12.33-7.36,12.33-16.4,12.33ZM25,3.35c-6.58,0-11.94,4.03-11.94,8.98s5.36,8.98,11.94,8.98,11.94-4.03,11.94-8.98S31.58,3.35,25,3.35Z"/>
    </g>
  </g>
</svg>